<?xml version="1.0" encoding="UTF-8"?>
<svg id="Layer_1" data-name="Layer 1" xmlns="http://www.w3.org/2000/svg" viewBox="0 0 1561.41 385.41">
  <defs>
    <style>
      .cls-1 {
        fill: #085cf0;
      }

      .cls-2 {
        fill: #050a34;
      }

      .cls-3 {
        fill: #092676;
      }
    </style>
  </defs>
  <g>
    <path class="cls-1" d="M288.76,191.32c0,12.59-3.6,24.8-10.4,35.31l-.63,1.07c-4.64,6.73-7.09,14.6-7.09,22.82,0,22.21,18.07,40.28,40.27,40.28,13.72,0,25.84-6.2,33.14-16.86l2.3-3.29c15.31-23.62,23.4-51.06,23.4-79.32,0-56.71-32.19-107.38-84.01-132.26-65.16-31.28-124.99.19-129.86,2.87-48.27,25.34-78.25,74.9-78.25,129.39,0,25.3,6.57,50.22,19,72.09,2.2,3.88,4.61,7.3,6.41,9.77l.06.08c8.98,13.11,24.92,19.73,40.68,16.86,16.15-2.94,29.05-15.75,32.1-31.86,1.9-10.02.05-20.25-5.12-28.65l-.88-1.41c-7.37-10.74-11.27-23.49-11.27-36.87,0-35.88,29.19-65.07,65.07-65.07s65.06,29.19,65.06,65.07ZM128.54,191.32c0,19.33,5.63,37.82,16.28,53.51l.23.38c.94,1.53,1.93,4.06,1.28,7.45-.73,3.85-4.06,7.16-7.92,7.86-4.98.91-8.65-1.61-10.65-4.52l-.31-.43c-2.07-2.85-3.5-5.01-4.65-7.03-9.86-17.34-15.07-37.12-15.07-57.21,0-43.31,23.86-82.71,62.27-102.82l.35-.19c2.03-1.12,50.25-27.14,102.37-2.13,41.29,19.82,66.94,60.11,66.94,105.13,0,22.36-6.36,44.04-18.41,62.73l-1.92,2.73c-1.73,2.53-4.72,3.92-8.42,3.92-5.61,0-10.18-4.57-10.18-10.18,0-2.74,1.05-4.76,1.93-5.97l1.25-2.03c9.77-15.29,14.94-32.98,14.94-51.2,0-52.47-42.69-95.16-95.16-95.16s-95.16,42.69-95.16,95.16Z"/>
    <path class="cls-1" d="M321.87,21.66c-7.58-4.12-17.07-.95-20.63,6.9-3.18,7.01-.49,15.36,6.28,19.04,54.7,29.74,88.14,83.87,88.14,144.15,0,31.62-9.04,62.27-26.13,88.68l-7.91,10.64c-24.75,25.46-50.71,30.92-77.18,16.21-13.97-7.76-20.85-17.31-22.9-33.05-.97-7.43-7.05-13.11-14.54-13.2h-.01c-9.07-.1-16,7.9-14.83,16.9,3.29,25.35,15.38,42.75,37.89,55.26,10.42,5.79,25.61,11.85,43.54,11.85,20.74,0,45.14-8.11,70.07-34.11l9.95-13.2.52-.75c20.4-31.32,31.18-67.71,31.18-105.23,0-71.27-39.24-135.13-103.43-170.09Z"/>
    <path class="cls-1" d="M200.02,261.03h-.01c-7.49.09-13.57,5.77-14.54,13.2-2.05,15.74-8.93,25.29-22.9,33.05-26.46,14.7-52.43,9.25-77.18-16.21l-7.91-10.64c-17.1-26.41-26.14-57.06-26.14-88.68,0-42.53,16.26-82.81,45.77-113.41,9.45-9.79,20.09-18.38,31.63-25.54,1.3-.81,2.61-1.59,3.93-2.36,6.71-3.91,9.44-12.21,6.11-19.23l-.02-.04c-3.67-7.76-13.21-10.86-20.64-6.56-1.69.98-3.36,1.98-5.01,3.01-13.63,8.45-26.19,18.6-37.33,30.15-34.88,36.16-54.09,83.74-54.09,133.99,0,37.53,10.79,73.92,31.19,105.23l9.28,12.53,1.19,1.41c24.92,26.01,49.33,34.11,70.07,34.11,17.92,0,33.11-6.06,43.54-11.85,22.51-12.51,34.6-29.91,37.89-55.26,1.17-9-5.76-17-14.83-16.9Z"/>
    <circle class="cls-1" cx="201.51" cy="191.6" r="9.88"/>
    <circle class="cls-1" cx="241.04" cy="191.6" r="9.88"/>
  </g>
  <g>
    <path class="cls-2" d="M1254.32,207.64v-25.43h5.13v25.43h-5.13Z"/>
    <path class="cls-2" d="M1283.2,182.2h5.13v25.43h-4.61l-9.23-15.95v15.95h-5.13v-25.43h4.76l9.08,15.76v-15.76Z"/>
    <path class="cls-2" d="M1315.04,182.2v4.54h-7.01v20.9h-5.13v-20.9h-7.01v-4.54h19.16Z"/>
    <path class="cls-2" d="M1327.72,203.09h11.15v4.54h-16.28v-25.43h15.95v4.54h-10.82v6.06h9.49v4.61h-9.49v5.69Z"/>
    <path class="cls-2" d="M1352.62,203.09h9.64v4.54h-14.77v-25.43h5.13v20.89Z"/>
    <path class="cls-2" d="M1369.79,207.64v-25.43h5.13v25.43h-5.13Z"/>
    <path class="cls-2" d="M1383.28,194.93c0-7.24,5.69-13.18,13-13.18,3.84,0,7.2,1.59,9.41,4.06l-3.73,3.21c-1.44-1.55-3.47-2.51-5.69-2.51-4.43,0-7.86,3.88-7.86,8.42s3.36,8.53,8.01,8.53c3.32,0,6.61-1.99,6.61-4.95h-7.2v-4.17h12.81c0,9.41-5.21,13.73-12.11,13.73-7.68,0-13.25-5.94-13.25-13.14Z"/>
    <path class="cls-2" d="M1421.65,203.09h11.15v4.54h-16.28v-25.43h15.95v4.54h-10.82v6.06h9.49v4.61h-9.49v5.69ZM1424.02,176.11l-2.84,3.25h-3.62l4.06-6.16h4.84l4.06,6.16h-3.62l-2.88-3.25Z"/>
    <path class="cls-2" d="M1455.26,182.2h5.13v25.43h-4.61l-9.23-15.95v15.95h-5.13v-25.43h4.76l9.08,15.76v-15.76Z"/>
    <path class="cls-2" d="M1468.75,194.9c0-7.16,5.72-13.14,12.92-13.14,4.32,0,8.08,2.07,10.37,5.28l-3.91,2.84c-1.44-2.03-3.58-3.29-6.28-3.29-4.62,0-7.97,3.77-7.97,8.31s3.32,8.34,7.94,8.34c2.73,0,4.87-1.26,6.31-3.29l3.91,2.84c-2.29,3.21-6.05,5.28-10.37,5.28-7.2,0-12.92-5.94-12.92-13.18Z"/>
    <path class="cls-2" d="M1499.81,207.64v-25.43h5.13v25.43h-5.13Z"/>
    <path class="cls-2" d="M1530.65,207.64l-2.07-6.09h-9.53l-2.03,6.09h-5.46l9.49-25.43h5.54l9.45,25.43h-5.39ZM1520.57,197.08h6.5l-3.25-9.64-3.25,9.64Z"/>
    <path class="cls-2" d="M1268.17,230.22h5.13v25.43h-4.61l-9.23-15.95v15.95h-5.13v-25.43h4.76l9.08,15.76v-15.76Z"/>
    <path class="cls-2" d="M1281.66,242.95c0-7.24,5.69-13.18,12.92-13.18s12.96,5.94,12.96,13.18-5.76,13.14-12.96,13.14-12.92-5.94-12.92-13.14ZM1302.37,242.95c0-4.58-3.25-8.34-7.79-8.34s-7.79,3.77-7.79,8.34,3.21,8.31,7.79,8.31,7.79-3.73,7.79-8.31Z"/>
    <path class="cls-2" d="M1339.94,230.22h5.35l-7.72,25.43h-4.62l-7.72-25.43h5.32l4.69,17.17,4.69-17.17Z"/>
    <path class="cls-2" d="M1367.16,255.66l-2.07-6.09h-9.53l-2.03,6.09h-5.46l9.49-25.43h5.54l9.45,25.43h-5.39ZM1357.08,245.1h6.5l-3.25-9.64-3.25,9.64Z"/>
    <path class="cls-2" d="M1392.1,255.66l-6.05-9.12h-1.74v9.12h-5.13v-25.43h10.15c5.83,0,8.34,4.13,8.34,8.3,0,3.62-2.55,7.16-6.13,7.79l6.57,9.34h-6.02ZM1384.31,234.76v7.64h4.1c2.88,0,4.1-1.74,4.1-3.77s-1.29-3.88-3.69-3.88h-4.5Z"/>
    <path class="cls-2" d="M1411.46,251.11h11.15v4.54h-16.28v-25.43h15.95v4.54h-10.82v6.06h9.49v4.61h-9.49v5.69Z"/>
    <path class="cls-2" d="M1424.8,263.78l.44-4.69c1,.37,2.92.4,3.14.4,2.25,0,3.14-1.7,3.14-3.73v-25.55h5.13v25.55c0,4.65-2.25,8.56-8.27,8.56-.7,0-2.32-.18-3.58-.55Z"/>
    <path class="cls-2" d="M1445,242.95c0-7.24,5.69-13.18,12.92-13.18s12.96,5.94,12.96,13.18-5.76,13.14-12.96,13.14-12.92-5.94-12.92-13.14ZM1465.71,242.95c0-4.58-3.25-8.34-7.79-8.34s-7.79,3.77-7.79,8.34,3.21,8.31,7.79,8.31,7.79-3.73,7.79-8.31Z"/>
  </g>
  <g>
    <path class="cls-3" d="M497.67,109.59h32.13v5.36c-.3,5.35-1.19,9.82-4.16,16.07l-1.19,2.98.6.6,4.76-5.95c9.52-14.28,27.08-22.61,44.63-22.61,22.91,0,39.57,9.52,48.2,26.19h1.19c10.41-16.07,29.16-26.19,50.88-26.19,35.41,0,55.64,22.61,55.64,61.89v91.05h-31.84v-91.64c0-22.02-10.41-38.09-31.24-38.09-19.64,0-37.19,15.77-37.19,40.47v89.26h-31.84v-91.64c0-22.02-10.41-38.09-31.54-38.09-19.34,0-36.9,15.77-36.9,40.47v89.26h-32.13V109.59Z"/>
    <path class="cls-3" d="M750.56,199.75v-89.56h32.13v90.45c0,25.29,10.71,39.28,30.95,39.28,21.42,0,40.47-16.66,40.47-42.25v-87.48h31.84v148.77h-31.84v-6.55c.3-5.35,1.19-10.11,3.87-15.77l1.19-2.68-.59-.89-4.46,5.95c-9.82,14.58-27.08,24.1-46.71,24.1-36.3,0-56.83-22.61-56.83-63.38Z"/>
    <path class="cls-3" d="M909.13,110.19h32.13v11.31c-.3,5.95-.89,10.41-2.97,16.66l-1.79,4.76.6.3,4.16-7.14c8.33-19.64,28.27-30.35,48.2-30.35,38.98,0,64.86,30.05,64.86,75.28v7.74c0,42.84-26.18,74.68-64.86,74.68-19.34,0-38.09-10.41-46.71-28.86h-1.49v83.61h-32.13V110.19ZM1022.5,189.04v-8.63c0-31.24-18.15-50.88-39.87-50.88-23.51,0-40.76,18.75-40.76,47.01v16.07c0,27.97,17.85,47.31,41.36,47.31,21.42,0,39.28-19.93,39.28-50.88Z"/>
    <path class="cls-3" d="M1061.16,220.88c0-28.56,20.83-41.95,52.37-47.01l42.55-7.14c5.65-.89,8.93-3.57,8.93-7.74v-2.08c0-13.99-13.09-24.99-32.14-24.99-16.07,0-29.75,7.44-34.22,21.13h-31.84c3.87-26.19,29.46-47.01,66.95-47.01s64.27,19.34,64.27,49.69v103.25h-29.75v-6.84c0-5.95.89-11.01,3.57-16.66l2.08-4.76-.3-.3-5.36,8.03c-11.31,16.96-34.22,24.7-55.05,24.7-30.65,0-52.07-17.56-52.07-42.25ZM1165.3,208.08v-21.72l-44.63,7.44c-18.45,3.27-27.67,10.41-27.67,24.99,0,12.2,12.2,20.53,28.86,20.53,22.02,0,43.44-12.8,43.44-31.24Z"/>
  </g>
</svg>