<?xml version="1.0" encoding="UTF-8"?>
<svg id="Layer_1" data-name="Layer 1" xmlns="http://www.w3.org/2000/svg" viewBox="0 0 799.06 650.82">
  <defs>
    <style>
      .cls-1 {
        fill: #085cf0;
      }
    </style>
  </defs>
  <path class="cls-1" d="M512.11,332.22c0,22.11-6.32,43.55-18.27,62l-1.11,1.88c-8.15,11.82-12.44,25.63-12.44,40.07,0,38.99,31.72,70.72,70.71,70.72,24.1,0,45.37-10.89,58.19-29.6l4.04-5.78c26.88-41.48,41.08-89.64,41.08-139.28,0-99.56-56.52-188.55-147.51-232.22-114.42-54.92-219.47.34-228,5.03-84.75,44.49-137.38,131.52-137.38,227.19,0,44.42,11.54,88.18,33.37,126.57,3.87,6.81,8.1,12.83,11.25,17.16l.11.14c15.76,23.01,43.76,34.64,71.44,29.6,28.36-5.16,51.01-27.65,56.36-55.94,3.34-17.59.09-35.55-8.99-50.31l-1.55-2.48c-12.95-18.85-19.79-41.24-19.79-64.74,0-63,51.25-114.24,114.24-114.24s114.24,51.25,114.24,114.24ZM230.79,332.22c0,33.94,9.88,66.41,28.59,93.95l.4.67c1.65,2.69,3.38,7.13,2.25,13.07-1.28,6.76-7.13,12.56-13.91,13.8-8.75,1.59-15.19-2.83-18.7-7.94l-.54-.75c-3.63-5-6.15-8.8-8.16-12.35-17.31-30.44-26.46-65.18-26.46-100.46,0-76.05,41.89-145.22,109.33-180.53l.61-.33c3.56-1.97,88.23-47.65,179.74-3.73,72.5,34.8,117.54,105.53,117.54,184.59,0,39.26-11.17,77.33-32.33,110.15l-3.37,4.79c-3.04,4.44-8.29,6.89-14.78,6.89-9.86,0-17.88-8.02-17.88-17.88,0-4.81,1.85-8.35,3.39-10.48l2.2-3.56c17.16-26.84,26.22-57.9,26.22-89.9,0-92.13-74.95-167.08-167.08-167.08s-167.08,74.95-167.08,167.08Z"/>
  <path class="cls-1" d="M570.25,34.33c-13.3-7.24-29.98-1.68-36.23,12.12-5.58,12.31-.86,26.97,11.02,33.43,96.05,52.22,154.76,147.26,154.76,253.09,0,55.52-15.86,109.33-45.89,155.7l-13.89,18.68c-43.45,44.71-89.04,54.3-135.52,28.47-24.52-13.63-36.61-30.39-40.22-58.04-1.7-13.04-12.38-23.02-25.53-23.18h-.02c-15.93-.18-28.09,13.87-26.04,29.68,5.78,44.51,27,75.07,66.53,97.03,18.3,10.17,44.97,20.8,76.45,20.8,36.42,0,79.27-14.24,123.03-59.89l17.47-23.17.92-1.32c35.82-54.99,54.75-118.88,54.75-184.77,0-125.14-68.89-237.27-181.6-298.64Z"/>
  <path class="cls-1" d="M356.31,454.61h-.03c-13.15.15-23.83,10.14-25.53,23.18-3.6,27.65-15.69,44.41-40.22,58.04-46.46,25.82-92.05,16.24-135.52-28.47l-13.89-18.69c-30.03-46.36-45.89-100.18-45.89-155.7,0-74.68,28.54-145.39,80.37-199.13,16.59-17.19,35.27-32.28,55.53-44.85,2.28-1.41,4.58-2.8,6.9-4.15,11.79-6.86,16.57-21.44,10.73-33.76l-.03-.07c-6.45-13.62-23.19-19.07-36.23-11.52-2.97,1.72-5.9,3.48-8.8,5.28-23.92,14.84-45.98,32.65-65.55,52.94-61.24,63.48-94.97,147.03-94.97,235.26,0,65.89,18.94,129.79,54.76,184.77l16.3,22.01,2.1,2.48c43.76,45.66,86.61,59.9,123.03,59.89,31.47,0,58.14-10.63,76.44-20.8,39.53-21.96,60.75-52.52,66.53-97.03,2.05-15.8-10.11-29.86-26.04-29.67Z"/>
  <circle class="cls-1" cx="358.92" cy="332.7" r="17.35"/>
  <circle class="cls-1" cx="428.32" cy="332.7" r="17.35"/>
</svg>