<?xml version="1.0" encoding="UTF-8"?>
<svg id="Layer_1" data-name="Layer 1" xmlns="http://www.w3.org/2000/svg" viewBox="0 0 1561.41 475.77">
  <defs>
    <style>
      .cls-1 {
        fill: #085cf0;
      }

      .cls-2 {
        fill: #092676;
      }
    </style>
  </defs>
  <g>
    <path class="cls-1" d="M359.72,260.22c0,15.01-4.29,29.56-12.4,42.09l-.75,1.27c-5.53,8.02-8.44,17.4-8.44,27.2,0,26.47,21.53,48,48,48,16.36,0,30.8-7.39,39.5-20.09l2.74-3.92c18.24-28.16,27.89-60.85,27.89-94.54,0-67.58-38.37-127.98-100.13-157.63-77.66-37.28-148.97.23-154.76,3.42-57.53,30.2-93.25,89.27-93.25,154.21,0,30.15,7.83,59.86,22.65,85.91,2.63,4.63,5.5,8.71,7.64,11.65l.07.1c10.7,15.62,29.7,23.51,48.49,20.09,19.25-3.5,34.62-18.77,38.26-37.97,2.26-11.94.06-24.13-6.1-34.15l-1.05-1.69c-8.79-12.8-13.43-27.99-13.43-43.95,0-42.76,34.79-77.55,77.55-77.55s77.54,34.79,77.54,77.55ZM168.76,260.22c0,23.04,6.71,45.08,19.41,63.77l.27.45c1.12,1.82,2.3,4.84,1.53,8.87-.87,4.59-4.84,8.53-9.44,9.37-5.94,1.08-10.31-1.92-12.69-5.39l-.37-.51c-2.46-3.39-4.17-5.97-5.54-8.38-11.75-20.66-17.96-44.24-17.96-68.19,0-51.62,28.44-98.58,74.21-122.54l.42-.22c2.42-1.33,59.89-32.35,122.01-2.54,49.21,23.62,79.78,71.63,79.78,125.3,0,26.65-7.58,52.49-21.94,74.77l-2.28,3.25c-2.07,3.02-5.63,4.68-10.03,4.68-6.69,0-12.13-5.44-12.13-12.14,0-3.26,1.25-5.67,2.3-7.12l1.49-2.42c11.65-18.22,17.8-39.3,17.8-61.02,0-62.54-50.87-113.41-113.41-113.41s-113.41,50.88-113.41,113.41Z"/>
    <path class="cls-1" d="M399.18,58.02c-9.03-4.92-20.35-1.14-24.59,8.23-3.79,8.36-.58,18.31,7.48,22.69,65.2,35.45,105.05,99.96,105.05,171.8,0,37.68-10.77,74.21-31.15,105.69l-9.43,12.68c-29.5,30.35-60.44,36.86-91.99,19.33-16.65-9.25-24.85-20.63-27.3-39.39-1.15-8.85-8.41-15.63-17.33-15.73h-.02c-10.82-.12-19.07,9.42-17.67,20.14,3.93,30.21,18.33,50.96,45.16,65.87,12.42,6.9,30.53,14.12,51.89,14.12,24.72,0,53.8-9.66,83.51-40.65l11.86-15.73.62-.9c24.32-37.32,37.17-80.69,37.17-125.42,0-84.94-46.76-161.05-123.27-202.71Z"/>
    <path class="cls-1" d="M253.96,343.3h-.02c-8.93.1-16.18,6.88-17.33,15.73-2.45,18.77-10.65,30.14-27.3,39.39-31.54,17.52-62.48,11.03-91.99-19.32l-9.43-12.68c-20.38-31.47-31.15-68-31.15-105.69,0-50.69,19.37-98.69,54.56-135.16,11.26-11.67,23.94-21.91,37.7-30.44,1.55-.96,3.11-1.9,4.69-2.82,8-4.66,11.25-14.55,7.28-22.92l-.02-.05c-4.38-9.24-15.74-12.95-24.59-7.82-2.01,1.17-4.01,2.36-5.98,3.58-16.24,10.07-31.21,22.16-44.5,35.94-41.57,43.09-64.46,99.8-64.46,159.69,0,44.73,12.85,88.1,37.17,125.42l11.06,14.94,1.42,1.68c29.71,30.99,58.79,40.66,83.51,40.65,21.36,0,39.47-7.22,51.89-14.12,26.83-14.91,41.24-35.65,45.16-65.87,1.39-10.73-6.86-20.27-17.67-20.14Z"/>
    <circle class="cls-1" cx="255.74" cy="260.55" r="11.78"/>
    <circle class="cls-1" cx="302.84" cy="260.55" r="11.78"/>
  </g>
  <g>
    <path class="cls-2" d="M606.68,124.76v-30.31h6.12v30.31h-6.12Z"/>
    <path class="cls-2" d="M641.1,94.44h6.12v30.31h-5.5l-11-19.01v19.01h-6.12v-30.31h5.68l10.82,18.79v-18.79Z"/>
    <path class="cls-2" d="M679.05,94.44v5.41h-8.36v24.91h-6.12v-24.91h-8.36v-5.41h22.84Z"/>
    <path class="cls-2" d="M694.15,119.35h13.29v5.41h-19.4v-30.31h19.01v5.41h-12.89v7.22h11.31v5.5h-11.31v6.78Z"/>
    <path class="cls-2" d="M723.83,119.35h11.48v5.41h-17.6v-30.31h6.12v24.9Z"/>
    <path class="cls-2" d="M744.3,124.76v-30.31h6.12v30.31h-6.12Z"/>
    <path class="cls-2" d="M760.37,109.62c0-8.62,6.78-15.71,15.49-15.71,4.57,0,8.58,1.89,11.22,4.84l-4.44,3.83c-1.72-1.85-4.14-2.99-6.78-2.99-5.28,0-9.37,4.62-9.37,10.03s4,10.17,9.55,10.17c3.96,0,7.87-2.38,7.87-5.9h-8.58v-4.97h15.27c0,11.22-6.2,16.37-14.43,16.37-9.15,0-15.8-7.09-15.8-15.67Z"/>
    <path class="cls-2" d="M806.11,119.35h13.29v5.41h-19.4v-30.31h19.01v5.41h-12.89v7.22h11.31v5.5h-11.31v6.78ZM808.93,87.18l-3.39,3.87h-4.31l4.84-7.35h5.76l4.84,7.35h-4.31l-3.43-3.87Z"/>
    <path class="cls-2" d="M846.16,94.44h6.12v30.31h-5.5l-11-19.01v19.01h-6.12v-30.31h5.68l10.82,18.79v-18.79Z"/>
    <path class="cls-2" d="M862.24,109.58c0-8.53,6.82-15.66,15.4-15.66,5.15,0,9.63,2.46,12.36,6.29l-4.66,3.39c-1.72-2.42-4.27-3.92-7.48-3.92-5.5,0-9.5,4.49-9.5,9.9s3.96,9.94,9.46,9.94c3.25,0,5.81-1.5,7.52-3.92l4.66,3.39c-2.73,3.83-7.21,6.29-12.36,6.29-8.58,0-15.4-7.09-15.4-15.71Z"/>
    <path class="cls-2" d="M899.26,124.76v-30.31h6.12v30.31h-6.12Z"/>
    <path class="cls-2" d="M936.02,124.76l-2.46-7.26h-11.35l-2.42,7.26h-6.51l11.31-30.31h6.6l11.26,30.31h-6.42ZM924,112.17h7.75l-3.87-11.48-3.87,11.48Z"/>
  </g>
  <g>
    <path class="cls-2" d="M1193.34,379.24h6.12v30.31h-5.5l-11-19.01v19.01h-6.12v-30.31h5.68l10.82,18.79v-18.79Z"/>
    <path class="cls-2" d="M1209.41,394.42c0-8.62,6.78-15.71,15.4-15.71s15.44,7.08,15.44,15.71-6.86,15.67-15.44,15.67-15.4-7.09-15.4-15.67ZM1234.1,394.42c0-5.46-3.87-9.94-9.28-9.94s-9.28,4.49-9.28,9.94,3.83,9.9,9.28,9.9,9.28-4.45,9.28-9.9Z"/>
    <path class="cls-2" d="M1278.88,379.24h6.38l-9.2,30.31h-5.5l-9.2-30.31h6.34l5.59,20.46,5.59-20.46Z"/>
    <path class="cls-2" d="M1311.32,409.55l-2.46-7.26h-11.35l-2.42,7.26h-6.51l11.31-30.31h6.6l11.26,30.31h-6.42ZM1299.31,396.97h7.75l-3.87-11.48-3.87,11.48Z"/>
    <path class="cls-2" d="M1341.04,409.55l-7.21-10.87h-2.07v10.87h-6.12v-30.31h12.1c6.95,0,9.94,4.93,9.94,9.9,0,4.31-3.04,8.54-7.3,9.29l7.83,11.13h-7.17ZM1331.75,384.65v9.11h4.88c3.43,0,4.88-2.07,4.88-4.49s-1.54-4.62-4.4-4.62h-5.37Z"/>
    <path class="cls-2" d="M1364.11,404.14h13.29v5.41h-19.4v-30.31h19.01v5.41h-12.89v7.22h11.31v5.5h-11.31v6.78Z"/>
    <path class="cls-2" d="M1380.01,419.24l.53-5.59c1.19.44,3.48.48,3.74.48,2.68,0,3.74-2.02,3.74-4.44v-30.45h6.12v30.45c0,5.54-2.68,10.21-9.86,10.21-.84,0-2.77-.22-4.27-.66Z"/>
    <path class="cls-2" d="M1404.09,394.42c0-8.62,6.78-15.71,15.4-15.71s15.44,7.08,15.44,15.71-6.86,15.67-15.44,15.67-15.4-7.09-15.4-15.67ZM1428.77,394.42c0-5.46-3.87-9.94-9.28-9.94s-9.28,4.49-9.28,9.94,3.83,9.9,9.28,9.9,9.28-4.45,9.28-9.9Z"/>
  </g>
  <g>
    <path class="cls-2" d="M608.7,162.82h38.3v6.38c-.35,6.38-1.42,11.7-4.96,19.15l-1.42,3.55.71.71,5.67-7.09c11.35-17.02,32.27-26.95,53.19-26.95,27.3,0,47.16,11.35,57.45,31.21h1.42c12.41-19.15,34.75-31.21,60.64-31.21,42.2,0,66.31,26.95,66.31,73.76v108.51h-37.94v-109.22c0-26.24-12.41-45.39-37.24-45.39-23.41,0-44.33,18.79-44.33,48.23v106.38h-37.95v-109.22c0-26.24-12.41-45.39-37.59-45.39-23.05,0-43.97,18.79-43.97,48.23v106.38h-38.3v-178.02Z"/>
    <path class="cls-2" d="M910.1,270.27v-106.74h38.3v107.8c0,30.14,12.77,46.81,36.88,46.81,25.53,0,48.23-19.86,48.23-50.36v-104.26h37.95v177.31h-37.95v-7.8c.35-6.38,1.42-12.06,4.61-18.79l1.42-3.19-.71-1.06-5.32,7.09c-11.7,17.37-32.27,28.72-55.68,28.72-43.26,0-67.73-26.95-67.73-75.53Z"/>
    <path class="cls-2" d="M1099.09,163.53h38.3v13.47c-.35,7.09-1.06,12.41-3.54,19.86l-2.13,5.67.71.36,4.96-8.51c9.93-23.41,33.69-36.17,57.45-36.17,46.46,0,77.31,35.81,77.31,89.72v9.22c0,51.06-31.21,89.01-77.31,89.01-23.05,0-45.39-12.41-55.68-34.4h-1.77v99.65h-38.3v-247.88ZM1234.2,257.5v-10.28c0-37.24-21.63-60.64-47.52-60.64-28.02,0-48.58,22.34-48.58,56.03v19.15c0,33.34,21.28,56.38,49.29,56.38,25.53,0,46.81-23.76,46.81-60.64Z"/>
    <path class="cls-2" d="M1280.29,295.45c0-34.04,24.82-50,62.41-56.03l50.71-8.51c6.74-1.07,10.64-4.26,10.64-9.22v-2.48c0-16.67-15.6-29.79-38.3-29.79-19.15,0-35.46,8.87-40.78,25.18h-37.95c4.61-31.21,35.11-56.03,79.79-56.03s76.6,23.05,76.6,59.22v123.05h-35.46v-8.16c0-7.09,1.06-13.12,4.26-19.86l2.48-5.67-.35-.35-6.38,9.57c-13.48,20.21-40.78,29.43-65.6,29.43-36.53,0-62.06-20.92-62.06-50.36ZM1404.4,280.2v-25.89l-53.19,8.87c-21.99,3.9-32.98,12.41-32.98,29.79,0,14.54,14.54,24.47,34.4,24.47,26.24,0,51.78-15.25,51.78-37.24Z"/>
  </g>
</svg>